<svg width="132" height="77" viewBox="0 0 132 77" fill="none" xmlns="http://www.w3.org/2000/svg">
<g clip-path="url(#clip0_738_563)">
<g clip-path="url(#clip1_738_563)">
<path d="M1.54729 76.7544L83.7196 76.7544C84.7766 76.7544 85.6334 74.9714 85.6334 72.772L85.6334 4.73678C85.6334 2.53737 84.7766 0.754394 83.7196 0.754394L1.54729 0.754387C0.490294 0.754387 -0.366571 2.53736 -0.366571 4.73677L-0.366577 72.772C-0.366577 74.9714 0.490288 76.7544 1.54729 76.7544Z" fill="#C7C6C6"/>
<path d="M90.8868 76.3564L129.245 76.3564C130.296 76.3564 131.149 75.5041 131.149 74.4528L131.149 2.57276C131.149 1.5214 130.296 0.669105 129.245 0.669105L90.8868 0.669102C89.8354 0.669102 88.9831 1.5214 88.9831 2.57276L88.9831 74.4528C88.9831 75.5041 89.8354 76.3564 90.8868 76.3564Z" fill="#C7C6C6"/>
</g>
</g>
<defs>
<clipPath id="clip0_738_563">
<rect width="131.64" height="75.9196" fill="white" transform="translate(131.637 76.3369) rotate(-180)"/>
</clipPath>
<clipPath id="clip1_738_563">
<rect width="131.152" height="75.8365" fill="white" transform="translate(131.149 76.3564) rotate(-180)"/>
</clipPath>
</defs>
</svg>
