<svg width="132" height="77" viewBox="0 0 132 77" fill="none" xmlns="http://www.w3.org/2000/svg">
<g clip-path="url(#clip0_738_553)">
<g clip-path="url(#clip1_738_553)">
<path d="M130.086 0H47.9139C46.8569 0 46 1.78297 46 3.98238V72.0176C46 74.217 46.8569 76 47.9139 76H130.086C131.143 76 132 74.217 132 72.0176V3.98238C132 1.78297 131.143 0 130.086 0Z" fill="#C7C6C6"/>
<path d="M40.7467 0.397949H2.38846C1.3371 0.397949 0.484802 1.25025 0.484802 2.30161V74.1816C0.484802 75.233 1.3371 76.0853 2.38846 76.0853H40.7467C41.798 76.0853 42.6503 75.233 42.6503 74.1816V2.30161C42.6503 1.25025 41.798 0.397949 40.7467 0.397949Z" fill="#C7C6C6"/>
</g>
</g>
<defs>
<clipPath id="clip0_738_553">
<rect width="131.64" height="75.9196" fill="white" transform="translate(-0.00320435 0.41748)"/>
</clipPath>
<clipPath id="clip1_738_553">
<rect width="131.152" height="75.8365" fill="white" transform="translate(0.484802 0.397949)"/>
</clipPath>
</defs>
</svg>
