<svg width="133" height="77" viewBox="0 0 133 77" fill="none" xmlns="http://www.w3.org/2000/svg">
<g clip-path="url(#clip0_738_571)">
<g clip-path="url(#clip1_738_571)">
<path d="M81.9633 0H6.03669C3.80729 0 2 0.852914 2 1.90504V74.095C2 75.1471 3.80729 76 6.03669 76H81.9633C84.1927 76 86 75.1471 86 74.095V1.90504C86 0.852914 84.1927 0 81.9633 0Z" fill="#C7C6C6"/>
<path d="M130.118 0.417969H92.0286C90.9846 0.417969 90.1383 1.2643 90.1383 2.3083V34.3771C90.1383 35.4211 90.9846 36.2674 92.0286 36.2674H130.118C131.162 36.2674 132.009 35.4211 132.009 34.3771V2.3083C132.009 1.2643 131.162 0.417969 130.118 0.417969Z" fill="#C7C6C6"/>
<path d="M130.118 39.874H92.0286C90.9846 39.874 90.1383 40.7204 90.1383 41.7644V73.8331C90.1383 74.8771 90.9846 75.7235 92.0286 75.7235H130.118C131.162 75.7235 132.009 74.8771 132.009 73.8331V41.7644C132.009 40.7204 131.162 39.874 130.118 39.874Z" fill="#C7C6C6"/>
</g>
</g>
<defs>
<clipPath id="clip0_738_571">
<rect width="131.64" height="75.9196" fill="white" transform="translate(0.827942 0.417969)"/>
</clipPath>
<clipPath id="clip1_738_571">
<rect width="130.234" height="75.4338" fill="white" transform="translate(1.77509 0.417969)"/>
</clipPath>
</defs>
</svg>
