<svg width="198" height="145" viewBox="0 0 198 145" fill="none" xmlns="http://www.w3.org/2000/svg">
<rect x="0.329968" y="0.329968" width="196.661" height="143.866" rx="1.64984" stroke="#C4C4C4" stroke-width="0.659936"/>
<g clip-path="url(#clip0_738_568)">
<g clip-path="url(#clip1_738_568)">
<path d="M113.963 24H38.0367C35.8073 24 34 24.8529 34 25.905V98.095C34 99.1471 35.8073 100 38.0367 100H113.963C116.193 100 118 99.1471 118 98.095V25.905C118 24.8529 116.193 24 113.963 24Z" fill="#C7C6C6"/>
<path d="M162.118 24.418H124.029C122.985 24.418 122.138 25.2643 122.138 26.3083V58.3771C122.138 59.4211 122.985 60.2674 124.029 60.2674H162.118C163.162 60.2674 164.009 59.4211 164.009 58.3771V26.3083C164.009 25.2643 163.162 24.418 162.118 24.418Z" fill="#C7C6C6"/>
<path d="M162.118 63.874H124.029C122.985 63.874 122.138 64.7204 122.138 65.7644V97.8331C122.138 98.8771 122.985 99.7235 124.029 99.7235H162.118C163.162 99.7235 164.009 98.8771 164.009 97.8331V65.7644C164.009 64.7204 163.162 63.874 162.118 63.874Z" fill="#C7C6C6"/>
</g>
</g>
<rect x="94.0409" y="120.499" width="9.23911" height="9.23911" rx="1.64984" stroke="#DFE2E6" stroke-width="0.659936"/>
<defs>
<clipPath id="clip0_738_568">
<rect width="131.64" height="75.9196" fill="white" transform="translate(32.8279 24.418)"/>
</clipPath>
<clipPath id="clip1_738_568">
<rect width="130.234" height="75.4338" fill="white" transform="translate(33.7751 24.418)"/>
</clipPath>
</defs>
</svg>
