<svg width="198" height="145" viewBox="0 0 198 145" fill="none" xmlns="http://www.w3.org/2000/svg">
<rect x="0.329968" y="0.329968" width="196.661" height="143.866" rx="1.64984" stroke="#C4C4C4" stroke-width="0.659936"/>
<g clip-path="url(#clip0_738_580)">
<g clip-path="url(#clip1_738_580)">
<path d="M83.3324 100.755L159.259 100.755C161.488 100.755 163.296 99.9025 163.296 98.8503L163.296 26.6604C163.296 25.6083 161.488 24.7554 159.259 24.7554L83.3324 24.7554C81.103 24.7554 79.2957 25.6083 79.2957 26.6604L79.2957 98.8503C79.2957 99.9024 81.103 100.755 83.3324 100.755Z" fill="#C7C6C6"/>
<path d="M35.1774 100.337L73.2671 100.337C74.3111 100.337 75.1574 99.4911 75.1574 98.4471L75.1574 66.3783C75.1574 65.3343 74.3111 64.488 73.2671 64.488L35.1774 64.488C34.1334 64.488 33.287 65.3343 33.287 66.3783L33.287 98.4471C33.287 99.4911 34.1334 100.337 35.1774 100.337Z" fill="#C7C6C6"/>
<path d="M35.1774 60.8813L73.2671 60.8813C74.3111 60.8813 75.1574 60.035 75.1574 58.991L75.1574 26.9223C75.1574 25.8783 74.3111 25.0319 73.2671 25.0319L35.1774 25.0319C34.1334 25.0319 33.287 25.8782 33.287 26.9222L33.287 58.991C33.287 60.035 34.1334 60.8813 35.1774 60.8813Z" fill="#C7C6C6"/>
</g>
</g>
<rect x="94.0409" y="120.499" width="9.23911" height="9.23911" rx="1.64984" stroke="#DFE2E6" stroke-width="0.659936"/>
<defs>
<clipPath id="clip0_738_580">
<rect width="131.64" height="75.9196" fill="white" transform="translate(164.468 100.337) rotate(-180)"/>
</clipPath>
<clipPath id="clip1_738_580">
<rect width="130.234" height="75.4338" fill="white" transform="translate(163.521 100.337) rotate(-180)"/>
</clipPath>
</defs>
</svg>
