<svg width="133" height="77" viewBox="0 0 133 77" fill="none" xmlns="http://www.w3.org/2000/svg">
<g clip-path="url(#clip0_738_583)">
<g clip-path="url(#clip1_738_583)">
<path d="M51.3324 76.7554L127.259 76.7554C129.488 76.7554 131.296 75.9025 131.296 74.8503L131.296 2.66041C131.296 1.60828 129.488 0.755371 127.259 0.755371L51.3324 0.755364C49.103 0.755364 47.2957 1.60828 47.2957 2.6604L47.2957 74.8503C47.2957 75.9024 49.103 76.7554 51.3324 76.7554Z" fill="#C7C6C6"/>
<path d="M3.17738 76.3374L41.2671 76.3374C42.3111 76.3374 43.1574 75.4911 43.1574 74.4471L43.1574 42.3783C43.1574 41.3343 42.3111 40.488 41.2671 40.488L3.17738 40.488C2.13338 40.488 1.28705 41.3343 1.28705 42.3783L1.28704 74.4471C1.28704 75.4911 2.13337 76.3374 3.17738 76.3374Z" fill="#C7C6C6"/>
<path d="M3.17738 36.8813L41.2671 36.8813C42.3111 36.8813 43.1574 36.035 43.1574 34.991L43.1574 2.92225C43.1574 1.87825 42.3111 1.03192 41.2671 1.03192L3.17738 1.03191C2.13338 1.03191 1.28705 1.87825 1.28705 2.92225L1.28704 34.991C1.28704 36.035 2.13337 36.8813 3.17738 36.8813Z" fill="#C7C6C6"/>
</g>
</g>
<defs>
<clipPath id="clip0_738_583">
<rect width="131.64" height="75.9196" fill="white" transform="translate(132.468 76.3374) rotate(-180)"/>
</clipPath>
<clipPath id="clip1_738_583">
<rect width="130.234" height="75.4338" fill="white" transform="translate(131.521 76.3374) rotate(-180)"/>
</clipPath>
</defs>
</svg>
