<svg width="198" height="145" viewBox="0 0 198 145" fill="none" xmlns="http://www.w3.org/2000/svg">
<rect x="0.329968" y="0.329968" width="196.661" height="143.866" rx="1.64984" stroke="#C4C4C4" stroke-width="0.659936"/>
<rect x="94.0409" y="120.499" width="9.23911" height="9.23911" rx="1.64984" stroke="#DFE2E6" stroke-width="0.659936"/>
<g clip-path="url(#clip0_738_559)">
<g clip-path="url(#clip1_738_559)">
<path d="M34.5473 100.754L116.72 100.754C117.777 100.754 118.633 98.9714 118.633 96.772L118.633 28.7368C118.633 26.5374 117.777 24.7544 116.72 24.7544L34.5473 24.7544C33.4903 24.7544 32.6334 26.5374 32.6334 28.7368L32.6334 96.772C32.6334 98.9714 33.4903 100.754 34.5473 100.754Z" fill="#C7C6C6"/>
<path d="M123.887 100.356L162.245 100.356C163.296 100.356 164.149 99.5041 164.149 98.4528L164.149 26.5728C164.149 25.5214 163.296 24.6691 162.245 24.6691L123.887 24.6691C122.835 24.6691 121.983 25.5214 121.983 26.5728L121.983 98.4528C121.983 99.5041 122.835 100.356 123.887 100.356Z" fill="#C7C6C6"/>
</g>
</g>
<defs>
<clipPath id="clip0_738_559">
<rect width="131.64" height="75.9196" fill="white" transform="translate(164.637 100.337) rotate(-180)"/>
</clipPath>
<clipPath id="clip1_738_559">
<rect width="131.152" height="75.8365" fill="white" transform="translate(164.149 100.356) rotate(-180)"/>
</clipPath>
</defs>
</svg>
