<?xml version="1.0" encoding="UTF-8"?>
<!DOCTYPE svg PUBLIC "-//W3C//DTD SVG 1.1//EN" "http://www.w3.org/Graphics/SVG/1.1/DTD/svg11.dtd">
<!-- Creator: CorelDRAW 2020 (64-Bit) -->
<svg xmlns="http://www.w3.org/2000/svg" xml:space="preserve" width="14.9562mm" height="12.4142mm" version="1.1" style="shape-rendering:geometricPrecision; text-rendering:geometricPrecision; image-rendering:optimizeQuality; fill-rule:evenodd; clip-rule:evenodd"
viewBox="0 0 181.84 150.93"
 xmlns:xlink="http://www.w3.org/1999/xlink"
 xmlns:xodm="http://www.corel.com/coreldraw/odm/2003">
 <defs>
  <style type="text/css">
   <![CDATA[
    .fil2 {fill:#8491A0}
    .fil1 {fill:#6C757D;fill-rule:nonzero}
    .fil0 {fill:#7075B5;fill-rule:nonzero}
   ]]>
  </style>
 </defs>
 <g id="Layer_x0020_1">
  <metadata id="CorelCorpID_0Corel-Layer"/>
  <path class="fil0" d="M16.95 24.06l26.26 0 0 -11.74c0,-8.02 -4.43,-12.32 -12.45,-12.32l-27.11 0c-2.38,0 -3.65,1.26 -3.65,3.65l0 16.7c0,2.39 1.27,3.72 3.65,3.72l13.31 0 0 -0z"/>
  <path class="fil1" d="M181.84 70.24l-0 0 0 42.05c0,22.96 -14.93,38.64 -37.54,38.64 -22.39,0 -37.31,-15.69 -37.31,-38.64l0 -108.34c0,-2.5 1.36,-3.87 3.85,-3.87l18.76 0c2.49,0 3.85,1.37 3.85,3.87l0 33.1c3.84,-3.41 8.82,-5.22 15.6,-5.22 20.13,0 32.79,15.68 32.79,38.41zm-26.68 -1.36c0,-7.04 -4.07,-11.59 -10.85,-11.59 -6.79,0 -10.86,4.55 -10.86,11.59l0 45c0,7.04 4.07,11.58 10.86,11.58 6.79,0 10.85,-4.54 10.85,-11.58l0 -45z"/>
  <path class="fil2" d="M107.1 114.96c0.61,11.76 5.23,21.43 12.85,27.76 -5.83,4.56 -13.3,7.16 -21.99,7.16 -9.22,0 -17.07,-3.82 -22.69,-9.89 -5.62,6.07 -13.53,9.89 -22.75,9.89 -21.36,0 -35.57,-15.52 -35.57,-38.01l0 -76.5 0 -0.63 26.25 0 0 0.72 0 77.77c0,6.97 3.39,11.47 9.46,11.47 6.3,0 9.69,-4.5 9.69,-11.47l0 -74.43c0,-2.71 1.25,-3.93 3.73,-3.93l18.44 0c2.48,0 4.09,1.23 4.09,3.93l0 74.43c0,6.97 3.12,11.47 9.41,11.47 5.55,0 8.59,-3.78 9.08,-9.74z"/>
 </g>
</svg>
