<?xml version="1.0" encoding="UTF-8"?>
<svg id="Vrstva_1" data-name="Vrstva 1" xmlns="http://www.w3.org/2000/svg" version="1.1" viewBox="0 0 130.7 56.5">
  <defs>
    <style>
      .cls-1 {
        fill: #6d70b3;
      }

      .cls-1, .cls-2, .cls-3, .cls-4 {
        stroke-width: 0px;
      }

      .cls-2 {
        fill: #828e9d;
      }

      .cls-2, .cls-3 {
        fill-rule: evenodd;
      }

      .cls-3, .cls-4 {
        fill: #fff;
      }
    </style>
  </defs>
  <g>
    <path class="cls-4" d="M55.6,26.2v6.6c0,3.9-2.5,6.4-6.3,6.4s-6.3-2.6-6.3-6.4V15.5c0-.5.3-.7.7-.7h3.6c.5,0,.7.3.7.7v4.8c.5-.4,1.2-.6,2.2-.6,3.2,0,5.3,2.6,5.3,6.4ZM50.5,25.8c0-.8-.4-1.3-1.2-1.3s-1.2.5-1.2,1.3v7.3c0,.8.4,1.3,1.2,1.3s1.2-.5,1.2-1.3v-7.3Z"/>
    <path class="cls-4" d="M87.2,33.2c0-.4,0-.9.7-.9h3.6c.3,0,.7.1.8.7.2.7.4,1.4,1.3,1.4s1.3-.6,1.3-1.2c0-2.3-7.5-2.1-7.5-7.9s2.6-5.5,6.2-5.5,6.1,3.3,6.2,5.4c0,.3,0,.8-.7.8h-3.6c-.5,0-.7-.3-.8-.7-.1-.4-.5-.7-1-.7s-1,.4-1,.9c0,2.3,7.5,2,7.5,8s-2.6,5.8-6.3,5.8-6.6-3.2-6.6-6Z"/>
    <path class="cls-4" d="M111.9,34.9v3.3c0,.5-.3.7-.7.7h-.8c-4.3,0-7-2.8-7-7.2v-7h-1.7c-.5,0-.7-.3-.7-.7v-3.1c0-.5.3-.7.7-.7h1.7v-4.8c0-.5.3-.7.7-.7h3.6c.5,0,.7.3.7.7v4.8h2.2c.5,0,.7.3.7.7v3.1c0,.5-.3.7-.7.7h-2.2v7.1c0,1.6.7,2.3,2.3,2.3h.3c.5,0,.7.3.7.7Z"/>
  </g>
  <path class="cls-2" d="M38.9,20.5h-3c-.4,0-.7.2-.7.7v12.3c0,1.2-.5,1.9-1.5,1.9s-1.6-.7-1.6-1.9v-12.3c0-.4-.3-.7-.7-.7h-3c-.4,0-.6.2-.6.7v12.3c0,1.2-.6,1.9-1.6,1.9s-1.6-.7-1.6-1.9v-12.9h0c0-.1-4.3-.1-4.3-.1h0v12.8c0,3.7,2.3,6.3,5.9,6.3s2.8-.6,3.8-1.6c.9,1,2.2,1.6,3.8,1.6,3.5,0,5.9-2.6,5.9-6.3v-12.1c0-.4-.2-.7-.6-.7Z"/>
  <path class="cls-1" d="M20.2,18.7h4.3v-1.9c0-1.3-.7-2-2.1-2h-4.5c-.4,0-.6.2-.6.6v2.8c0,.4.2.6.6.6h2.2Z"/>
  <g>
    <path class="cls-3" d="M64.3,19.8c-3.7,0-6.2,2.6-6.2,6.3v6.9c0,3.8,2.5,6.3,6.2,6.3s6.2-2.6,6.2-6.3v-6.9c0-3.7-2.5-6.3-6.2-6.3ZM68.5,28.5c0,.2,0,.4-.2.5-.7-.5-1.4-.8-2.3-.8s-1.8.3-1.8,1.4.8,1.5,2.2,1.6c.4,0,.6.3.6.6v2.4c0,.3-.2.5-.6.5-3.5-.1-5.6-1.9-5.6-5s2.3-5,5.1-5,1.8.2,2.5.5c.1,0,.2.2.2.5v3Z"/>
    <path class="cls-3" d="M78.8,19.8c-3.7,0-6.2,2.6-6.2,6.3v2.8c1.2,1.3,2.5,2.2,4.5,2.2v-6.1c0-.3.2-.5.6-.5h2.4c.4,0,.6.2.6.5v8.2c0,1.1-.6,1.7-1.7,1.7h-.7c-2.5,0-4.2-.9-5.5-1.8,0,0,0,0,0,0,.1,3.6,2.6,6,6.2,6s6.2-2.6,6.2-6.3v-6.9c0-3.7-2.5-6.3-6.2-6.3Z"/>
  </g>
</svg>