<?xml version="1.0" encoding="UTF-8"?>
<!DOCTYPE svg PUBLIC "-//W3C//DTD SVG 1.1//EN" "http://www.w3.org/Graphics/SVG/1.1/DTD/svg11.dtd">
<!-- Creator: CorelDRAW 2020 (64-Bit) -->
<svg xmlns="http://www.w3.org/2000/svg" xml:space="preserve" width="46.2748mm" height="12.5756mm" version="1.1" style="shape-rendering:geometricPrecision; text-rendering:geometricPrecision; image-rendering:optimizeQuality; fill-rule:evenodd; clip-rule:evenodd"
viewBox="0 0 1099.07 298.68"
 xmlns:xlink="http://www.w3.org/1999/xlink"
 xmlns:xodm="http://www.corel.com/coreldraw/odm/2003">
 <defs>
  <style type="text/css">
   <![CDATA[
    .fil0 {fill:#8491A0}
    .fil3 {fill:white}
    .fil1 {fill:#7075B5;fill-rule:nonzero}
    .fil2 {fill:white;fill-rule:nonzero}
   ]]>
  </style>
 </defs>
 <g id="Layer_x0020_1">
  <metadata id="CorelCorpID_0Corel-Layer"/>
  <path class="fil0" d="M256.71 69c4.89,0 7.39,2.44 7.39,7.78l0 144.63c0,44.5 -27.95,75.21 -70.23,75.21 -18.24,0 -33.78,-7.56 -44.9,-19.57 -11.13,12.01 -26.78,19.57 -45.03,19.57 -42.27,0 -70.38,-30.71 -70.38,-75.21l0 -151.4 0 -1.24 51.95 0 0 1.42 0 153.89c0,13.79 6.71,22.7 18.72,22.7 12.47,0 19.17,-8.91 19.17,-22.7l0 -147.3c0,-5.35 2.48,-7.78 7.37,-7.78l36.49 0c4.9,0 8.09,2.44 8.09,7.78l0 147.3c0,13.79 6.17,22.7 18.62,22.7 12.03,0 18.18,-8.91 18.18,-22.7l0 -147.3c0,-5.35 3.18,-7.78 8.51,-7.78l36.05 0z"/>
  <path class="fil1" d="M33.56 47.62l0 0.01 -26.34 0c-4.71,0 -7.21,-2.63 -7.21,-7.36l0 -33.04c0,-4.73 2.51,-7.23 7.21,-7.23l53.65 0c15.88,0 24.65,8.51 24.65,24.39l0 23.23 -51.96 0z"/>
  <path class="fil2" d="M387.56 136.31l0 89.06c0,13.94 -8.05,22.93 -21.48,22.93 -13.43,0 -21.48,-8.99 -21.48,-22.93l0 -89.06c0,-13.94 8.05,-22.93 21.48,-22.93 13.42,0 21.48,8.99 21.48,22.93zm52.8 2.7c0,-44.98 -25.05,-76.01 -64.89,-76.01 -13.42,0 -23.27,3.6 -30.88,10.34l0 -65.51c0,-4.94 -2.68,-7.65 -7.61,-7.65l-37.13 0c-4.93,0 -7.61,2.71 -7.61,7.65l0 214.39c0,45.43 29.52,76.47 73.83,76.47 44.74,0 74.28,-31.04 74.28,-76.47l0 -83.21z"/>
  <path class="fil2" d="M812.67 226.27c0.9,35.98 27.3,72.42 77.86,72.42 43.86,0 73.4,-28.34 73.4,-67.93 0,-73.77 -95.77,-67.02 -95.77,-100.75 0,-9.9 7.61,-17.09 19.24,-17.09 11.64,0 17.91,6.74 19.7,16.63 0.89,4.5 3.13,7.65 8.05,7.65l37.14 0c6.71,0 7.61,-4.5 7.61,-8.1 -0.9,-29.24 -21.03,-66.11 -72.95,-66.11 -41.62,0 -71.6,26.08 -71.6,65.67 0,71.96 95.32,65.22 95.32,100.29 0,10.8 -7.61,19.35 -21.48,19.35 -15.22,0 -21.48,-10.34 -23.27,-24.29 -1.34,-5.4 -4.92,-7.2 -8.5,-7.2l-37.14 0c-6.71,0 -7.61,4.95 -7.61,9.45z"/>
  <path class="fil2" d="M1099.07 252.8c0,-4.95 -2.68,-7.65 -7.61,-7.65l-4.47 0c-20.58,0 -30.43,-10.79 -30.43,-33.28l0 -95.8 29.98 0c4.93,0 7.61,-2.7 7.61,-7.64l0 -32.39c0,-4.94 -2.68,-7.64 -7.61,-7.64l-29.98 0 0 -58.02c0,-4.94 -2.69,-7.65 -7.6,-7.65l-37.14 0c-4.93,0 -7.61,2.71 -7.61,7.65l0 58.02 -22.37 0c-4.93,0 -7.61,2.7 -7.61,7.64l0 32.39c0,4.94 2.68,7.64 7.61,7.64l22.37 0 0 94.91c0,51.72 29.98,84.11 78.75,84.11l8.51 0c4.93,0 7.61,-2.7 7.61,-7.65l0 -34.63z"/>
  <path class="fil3" d="M591.76 167.69l0 -36.02c0,-3.63 -0.9,-4.68 -2.56,-5.78 -8.6,-3.41 -18.35,-5.46 -29.69,-5.46 -32.9,0 -60.95,20.94 -60.95,60.2 0,37.02 25.05,58.71 67.31,60.2 4.49,0.38 6.74,-1.87 6.74,-5.98l0 -28.41c0,-3.75 -2.25,-6.36 -6.74,-6.74 -16.82,-0.75 -26.17,-7.1 -26.17,-19.07 0,-12.72 10.1,-16.83 21.31,-16.83 11.03,0 19.93,3.77 28.12,9.69 1.65,-1.05 2.63,-3.01 2.63,-5.8zm-50.14 -104.3c44.5,0 74.31,30.7 74.31,75.21l0 82.33c0,44.94 -29.81,75.65 -74.31,75.65 -44.51,0 -74.32,-30.71 -74.32,-75.65l0 -82.33c0,-44.51 29.81,-75.21 74.32,-75.21z"/>
  <path class="fil3" d="M714.17 63.39c44.5,0 74.32,30.71 74.32,75.21l0 82.33c0,44.94 -29.82,75.65 -74.32,75.65 -43.36,0 -72.76,-29.15 -74.24,-72.22 0.21,0.14 0.41,0.29 0.62,0.43 16.23,11.04 37,21.24 66.33,21.24l8.6 0c12.72,0 19.82,-8.19 19.82,-20.91l0 -98.34c0,-4.12 -2.24,-6.36 -6.73,-6.36l-28.42 0c-4.11,0 -6.73,2.24 -6.73,6.36l0 72.54c-23.64,0 -38.82,-11.14 -53.57,-26.81l0 -33.93c0,-44.5 29.82,-75.21 74.32,-75.21z"/>
 </g>
</svg>
